<!-- <svg xmlns="http://www.w3.org/2000/svg" width="40" height="40" viewBox="0 0 40 40" fill="none" data-inject-url="https://edublink.html.devsblink.com/assets/images/animated-svg-icons/hybrid-distance-programs.svg" class="svgInject">
    <path d="M3.51448 30.4573C0.0954334 27.0383 0.0954334 21.4954 3.51448 18.0764L18.0764 3.51448C21.4954 0.0954334 27.0383 0.0954334 30.4573 3.51448C33.8764 6.93353 33.8764 12.4764 30.4573 15.8954L15.8954 30.4573C12.4764 33.8764 6.93353 33.8764 3.51448 30.4573Z" stroke="#f8941f" stroke-width="2" stroke-miterlimit="10" stroke-linecap="round" style="stroke-dasharray: 97, 99; stroke-dashoffset: 0;"></path>
    <path d="M31.3715 39.0477C35.6109 39.0477 39.0477 35.6109 39.0477 31.3715C39.0477 27.1321 35.6109 23.6953 31.3715 23.6953C27.1321 23.6953 23.6953 27.1321 23.6953 31.3715C23.6953 35.6109 27.1321 39.0477 31.3715 39.0477Z" stroke="#f8941f" stroke-width="2" stroke-miterlimit="10" stroke-linecap="round" style="stroke-dasharray: 49, 51; stroke-dashoffset: 0;"></path>
    <path d="M10.7905 10.791L23.1715 23.172" stroke="#f8941f" stroke-width="2" stroke-miterlimit="10" stroke-linecap="round" style="stroke-dasharray: 18, 20; stroke-dashoffset: 0;"></path>
    <path d="M25.9619 36.781L36.781 25.9619" stroke="#f8941f" stroke-width="2" stroke-miterlimit="10" stroke-linecap="round" style="stroke-dasharray: 16, 18; stroke-dashoffset: 0;"></path>
    <path d="M19.5337 9.57139L21.9527 7.15234" stroke="#f8941f" stroke-width="2" stroke-miterlimit="10" stroke-linecap="round" style="stroke-dasharray: 4, 6; stroke-dashoffset: 0;"></path>
</svg> -->
<svg xmlns="http://www.w3.org/2000/svg" width="24" height="24" viewBox="0 0 24 24"><g fill="none"><path d="M24 0v24H0V0zM12.593 23.258l-.011.002l-.071.035l-.02.004l-.014-.004l-.071-.035c-.01-.004-.019-.001-.024.005l-.004.01l-.017.428l.005.02l.01.013l.104.074l.015.004l.012-.004l.104-.074l.012-.016l.004-.017l-.017-.427c-.002-.01-.009-.017-.017-.018m.265-.113l-.013.002l-.185.093l-.01.01l-.003.011l.018.43l.005.012l.008.007l.201.093c.012.004.023 0 .029-.008l.004-.014l-.034-.614c-.003-.012-.01-.02-.02-.022m-.715.002a.023.023 0 0 0-.027.006l-.006.014l-.034.614c0 .012.007.02.017.024l.015-.002l.201-.093l.01-.008l.004-.011l.017-.43l-.003-.012l-.01-.01z"/><path fill="#f28a3a" d="M10.586 2.1a2 2 0 0 1 2.7-.116l.128.117L15.314 4H18a2 2 0 0 1 1.994 1.85L20 6v2.686l1.9 1.9a2 2 0 0 1 .116 2.701l-.117.127l-1.9 1.9V18a2 2 0 0 1-1.85 1.995L18 20h-2.685l-1.9 1.9a2 2 0 0 1-2.701.116l-.127-.116l-1.9-1.9H6a2 2 0 0 1-1.995-1.85L4 18v-2.686l-1.9-1.9a2 2 0 0 1-.116-2.701l.116-.127l1.9-1.9V6a2 2 0 0 1 1.85-1.994L6 4h2.686zM12 3.516l-1.9 1.9a2 2 0 0 1-1.238.577L8.686 6H6v2.686a2 2 0 0 1-.467 1.285l-.119.13l-1.9 1.9l1.9 1.899a2 2 0 0 1 .578 1.238l.008.176V18h2.686a2 2 0 0 1 1.285.467l.13.119l1.899 1.9l1.9-1.9a2 2 0 0 1 1.238-.578l.176-.008H18v-2.686a2 2 0 0 1 .467-1.285l.119-.13l1.9-1.899l-1.9-1.9a2 2 0 0 1-.578-1.238L18 8.686V6h-2.686a2 2 0 0 1-1.285-.467l-.13-.119l-1.9-1.9Zm3.08 5.468a1 1 0 0 1 1.497 1.32l-.084.094l-4.88 4.88a1.1 1.1 0 0 1-1.46.086l-.096-.085l-2.404-2.404a1 1 0 0 1 1.32-1.498l.094.083l1.768 1.768z"/></g></svg>
